<?xml version="1.0" encoding="utf-8"?>
<!-- Generator: Adobe Illustrator 26.0.2, SVG Export Plug-In . SVG Version: 6.00 Build 0)  -->
<svg version="1.1" id="computer" xmlns="http://www.w3.org/2000/svg" xmlns:xlink="http://www.w3.org/1999/xlink" x="0px" y="0px"
	 viewBox="0 0 21.5 16.8" style="enable-background:new 0 0 21.5 16.8;" xml:space="preserve">
<style type="text/css">
	.st0{fill:#A4A4A4;}
</style>
<path id="Path_1767" class="st0" d="M17.3,0H4.2C1.9,0,0,1.9,0,4.2c0,0,0,0,0,0v8.4c0,2.3,1.9,4.2,4.2,4.2l0,0h13.1
	c2.3,0,4.2-1.9,4.2-4.2v0V4.2C21.5,1.9,19.6,0,17.3,0C17.3,0,17.3,0,17.3,0z M19.8,12.6c0,1.4-1.1,2.5-2.5,2.5H4.2
	c-1.4,0-2.5-1.1-2.5-2.5V4.2c0-1.4,1.1-2.5,2.5-2.5h13.1c1.4,0,2.5,1.1,2.5,2.5V12.6z"/>
<path id="Path_1768" class="st0" d="M10.8,18.1c-0.5,0-0.8,0.4-0.8,0.8v0.8H7.4c-0.5,0-0.8,0.4-0.8,0.8c0,0.5,0.4,0.8,0.8,0.8h6.7
	c0.5,0,0.8-0.4,0.8-0.8c0-0.5-0.4-0.8-0.8-0.8h-2.5V19C11.6,18.5,11.2,18.1,10.8,18.1z"/>
<path id="Path_1769" class="st0" d="M17.3,10.1H4.2c-0.5,0-0.8,0.4-0.8,0.8c0,0.5,0.4,0.8,0.8,0.8h13.1c0.5,0,0.8-0.4,0.8-0.8
	C18.1,10.5,17.8,10.1,17.3,10.1L17.3,10.1z"/>
</svg>
